<?xml version="1.0" encoding="utf-8"?>
<!-- Generator: Adobe Illustrator 23.0.6, SVG Export Plug-In . SVG Version: 6.00 Build 0)  -->
<svg version="1.1" id="Ebene_1" xmlns="http://www.w3.org/2000/svg" xmlns:xlink="http://www.w3.org/1999/xlink" x="0px" y="0px"
	 viewBox="0 0 2394.7 1021.3" style="enable-background:new 0 0 2394.7 1021.3;" xml:space="preserve">
<style type="text/css">
	.st0{fill:#FFFFFF;}
</style>
<g>
	<path class="st0" d="M673.5,164.9v196.7H627V164.9h-49v-41.1h144.4v41.1H673.5z"/>
	<path class="st0" d="M794,364.7c-16.6,0-44.8-5.1-47.9-5.8v-37.7c8.2,1.7,27.5,5.8,42.5,5.8c16.3,0,26.8-11.5,26.8-32.6
		c0-26.5-6.8-37.7-27.5-37.7h-26.2v-37h22.8c19.4,0,27.2-11.9,27.2-32.3c0-19.4-6.8-28.9-23.8-28.9c-14.9,0-30.2,3.7-40.1,5.8v-37.7
		c3.7-0.7,27.2-5.8,44.5-5.8c43.5,0,64.5,15.6,64.5,67.6c0,20.4-6.8,41.4-25.5,47.9c18.8,3.7,29.7,21,29.7,54.7
		C861,348,831.7,364.7,794,364.7z"/>
	<path class="st0" d="M1017.5,361.6l-10.9-55.4h-56.7L939,361.6h-48.6l54.3-237.8h68.6l52,237.8H1017.5z M978.1,153.7l-20.4,112.4
		h41.4L978.1,153.7z"/>
	<path class="st0" d="M1197.2,358.9c-7.5,2-29.9,5.1-41.1,5.1c-52,0-75.4-21.7-75.4-125s27.9-117.5,79.8-117.5
		c9.2,0,31.6,3.1,36.7,4.8v41.1c-11.2-2.7-28.9-5.1-41.1-5.1c-19.7,0-28.2,8.8-28.2,79.1s7.5,81.9,28.2,81.9
		c13.9,0,32.6-3.1,41.1-5.1V358.9z"/>
</g>
<g>
	<path class="st0" d="M665.6,831.7c0,30-16,42.6-41.5,42.6s-41.7-12.7-41.7-42.6V717.4h19.3v118.5c0,15.5,9.1,22.2,22.4,22.2
		c13.3,0,22.2-6.7,22.2-22.2V717.4h19.3V831.7z"/>
	<path class="st0" d="M748.3,872.8l-34-138.9v138.9h-18V717.4h31.5l34.2,139v-139h18v155.4L748.3,872.8L748.3,872.8z"/>
	<path class="st0" d="M803.8,872.8v-16.2h15.5v-123h-15.5v-16.2h50.4v16.2h-15.5v123h15.5v16.2H803.8z"/>
	<path class="st0" d="M929.6,872.8h-26.4l-30.4-155.4h19.5l24.4,135.8l26.4-135.8h19.1L929.6,872.8z"/>
	<path class="st0" d="M985.1,872.8V717.4h72.8v16.2h-53.5v50.8h47.9v16.2h-47.9v55.9h53.5v16.2L985.1,872.8L985.1,872.8z"/>
	<path class="st0" d="M1141.4,805.3l30.4,67.5h-21.3l-28.4-64.4h-19.8v64.4H1083V717.4c0,0,19.1-1.6,37.5-1.6
		c33.7,0,43.1,18,43.1,45.3C1163.6,784,1157.2,799.1,1141.4,805.3z M1123.2,731.8c-12.2,0-20.9,1.3-20.9,1.3v59h20.9
		c12.4,0,20.6-5.3,20.6-29.5C1143.9,741.2,1139,731.8,1123.2,731.8z"/>
	<path class="st0" d="M1218.1,874.3c-7.1,0-18.2-1.3-25.7-3.3v-16.2c6.9,1.8,16,3.3,28,3.3c15.3,0,22-8.9,22-27.3
		c0-21.5-6-27.7-18-30.2c-24.6-5.1-34-15.8-34-42c0-31.7,18.2-42.8,43.7-42.8c7.3,0,17.1,1.6,23.5,3.3v16.2
		c-7.5-1.8-18-3.3-25.7-3.3c-11.1,0-21.8,6.7-21.8,24.2c0,18,3.1,23.1,17.1,26c21.3,4.4,34.8,13.8,34.8,46.4
		C1262,865.5,1244.5,874.3,1218.1,874.3z"/>
	<path class="st0" d="M1280.5,872.8v-16.2h15.5v-123h-15.5v-16.2h50.4v16.2h-15.5v123h15.5v16.2H1280.5z"/>
	<path class="st0" d="M1400.9,734.3v138.5h-19.3V734.3h-34.2v-16.9h87.7v16.9H1400.9z"/>
	<path class="st0" d="M1509,800.6v72.1h-20v-72.1l-39.7-83.2h21.3l29.3,64.6l29.3-64.6h20.2L1509,800.6z"/>
	<path class="st0" d="M1668.4,814.2h-18.6v58.6h-19.3V717.4c0,0,19.1-1.6,37.5-1.6c33.7,0,43.5,20.9,43.5,48.2
		C1711.4,797.8,1699.9,814.2,1668.4,814.2z M1670.6,731.8c-12.2,0-20.9,1.3-20.9,1.3V798h20.9c12.4,0,21.1-8.2,21.1-32.4
		C1691.7,743.4,1686.4,731.8,1670.6,731.8z"/>
	<path class="st0" d="M1797.7,872.8l-8.4-39.3H1746l-8.7,39.3h-19.8l37.5-155.4h25.5l36.8,155.4L1797.7,872.8L1797.7,872.8z
		 M1767.5,732.1l-18,84.8h36.2L1767.5,732.1z"/>
	<path class="st0" d="M1900.8,870.6c-4.9,1.3-17.3,3.8-24.6,3.8c-31.7,0-44.8-15.5-44.8-81.7c0-65.5,15.1-76.8,47.5-76.8
		c7.1,0,16,1.6,22,3.1v16.4c-7.3-1.8-17.3-2.9-26-2.9c-16.2,0-23.7,8-23.7,61.7c0,55.9,8,63.5,24,63.5c9.1,0,20.2-2,25.7-3.3
		L1900.8,870.6L1900.8,870.6z"/>
	<path class="st0" d="M1986.5,872.8l-34.6-71.2l-8,13.3v57.9h-19.3V717.4h19.3v68.1l41.5-68.1h20.6l-42.2,67.9l44.4,87.5
		L1986.5,872.8L1986.5,872.8z"/>
	<path class="st0" d="M2104.7,872.8l-8.4-39.3H2053l-8.7,39.3h-19.8l37.5-155.4h25.5l36.8,155.4L2104.7,872.8L2104.7,872.8z
		 M2074.5,732.1l-18,84.8h36.2L2074.5,732.1z"/>
	<path class="st0" d="M2219.5,870.6c-11.8,2.2-22.9,3.8-34.8,3.8c-34,0-46.2-15.5-46.2-81.7c0-65.5,16.4-76.8,51.5-76.8
		c7.5,0,19.3,1.8,24.9,3.1v16c-9.3-1.8-19.3-2.9-28.9-2.9c-19.1,0-27.7,8.4-27.7,62.1c0,55.9,7.8,63.9,25.3,63.9
		c5.1,0,11.8-0.7,17.5-1.6v-49.3h-19.8V791h38.2V870.6z"/>
	<path class="st0" d="M2247.6,872.8V717.4h72.8v16.2h-53.5v50.8h47.9v16.2h-47.9v55.9h53.5v16.2L2247.6,872.8L2247.6,872.8z"/>
</g>
<path class="st0" d="M0,561.7V1022h460.3V561.7H0z M202.8,980.3c-63.5,0-153.4-191.3-153.4-275.6c0-13.3,2.9-23.7,7.6-30.3
	c21.8-26.5,90-47.4,146.8-54c-6.6,5.7-11.3,12.3-11.3,32.2c0,54,68.2,216.2,114.6,216.2c5.7,0,10-0.6,15.4-2.2
	C281.6,932,232.1,980.3,202.8,980.3z M345.8,806.1c-38.8,0-87.1-108-87.1-162c0-24.6,9.5-29.3,34.1-29.3
	c58.7,0,117.5,9.5,117.5,42.6C410.2,724.6,367.6,806.1,345.8,806.1z"/>
<path class="st0" d="M0,0v460.3h460.3V0H0z M323.3,275.4c0,0-31.7,45.8-96.3,45.8s-92.1-29.7-100.1-45.4
	c-0.4-45.4-0.9-57.9-0.9-57.9L227.2,258l97.7-39.5L323.3,275.4z M226.4,248.5L98.3,198.8v19.6c3,0.9,5.1,3.5,5.1,6.4
	c0,2.8-1.9,5.2-4.6,6.3c0.9,14,6.5,90.6,7.1,98.9c0.6,8.2-20.7,8.1-19.9-0.1c0.3-7.1,5.8-81.2,7.3-98.6c-3-0.9-5.2-3.5-5.2-6.4
	c0-3.2,2.5-5.8,5.8-6.6v-20.7L28.5,172L227,95.3c0,0,131.1,51.9,197.1,76.6L226.4,248.5z"/>
</svg>
