<?xml version="1.0" encoding="utf-8"?>
<!-- Generator: Adobe Illustrator 23.0.6, SVG Export Plug-In . SVG Version: 6.00 Build 0)  -->
<svg version="1.1" id="Ebene_1" xmlns="http://www.w3.org/2000/svg" xmlns:xlink="http://www.w3.org/1999/xlink" x="0px" y="0px"
	 viewBox="0 0 16 16" style="enable-background:new 0 0 16 16;" xml:space="preserve">
<style type="text/css">
	.st0{fill:#264A80;}
	.st1{opacity:0.63;fill:#EDF5FC;enable-background:new    ;}
	.st2{clip-path:url(#SVGID_2_);}
	.st3{fill:#FFFFFF;stroke:#FFFFFF;stroke-width:0.25;}
</style>
<path class="st0" d="M16,4v10H0V2h7l1.3,2H16z"/>
<path class="st1" d="M16,5H8.3L7,7H0V4h16V5z"/>
<g id="Groupe_84" transform="translate(430.243 2685.467)">
	<g>
		<defs>
			
				<rect id="SVGID_1_" x="-426" y="-2679" transform="matrix(0.7071 -0.7071 0.7071 0.7071 1768.0093 -1082.131)" width="7.6" height="7.6"/>
		</defs>
		<clipPath id="SVGID_2_">
			<use xlink:href="#SVGID_1_"  style="overflow:visible;"/>
		</clipPath>
		<g id="Groupe_52" transform="translate(-1.243 -1.356)" class="st2">
			<path id="Tracé_25" class="st3" d="M-421.2-2673.1c-0.3-0.3-0.4-0.6-0.4-1c0-0.1,0.1-0.2,0.2-0.2c0.1,0,0.2,0.1,0.2,0.2
				c0,0.6,0.5,1,1,1h2c0.6,0,1-0.5,1-1.1c0-0.6-0.5-1-1-1l-1.7,0c-0.1,0-0.2-0.1-0.2-0.2c0-0.1,0.1-0.2,0.2-0.2l1.7,0
				c0.8,0,1.4,0.6,1.4,1.4s-0.6,1.4-1.4,1.4l-2,0C-420.6-2672.7-421-2672.8-421.2-2673.1"/>
			<path id="Tracé_26" class="st3" d="M-424.5-2673.1c-0.6-0.6-0.6-1.5,0-2c0.3-0.3,0.6-0.4,1-0.4h2c0.8,0,1.4,0.6,1.4,1.4
				c0,0.1-0.1,0.2-0.2,0.2s-0.2-0.1-0.2-0.2c0-0.6-0.5-1-1-1l-2,0c-0.6,0-1,0.5-1,1.1c0,0.6,0.5,1,1,1l1.7,0c0.1,0,0.2,0.1,0.2,0.2
				c0,0.1-0.1,0.2-0.2,0.2l0,0l-1.7,0C-423.9-2672.7-424.3-2672.8-424.5-2673.1"/>
		</g>
	</g>
</g>
</svg>
