<?xml version="1.0" encoding="utf-8"?>
<!-- Generator: Adobe Illustrator 26.0.1, SVG Export Plug-In . SVG Version: 6.00 Build 0)  -->
<svg version="1.1" id="Ebene_1" xmlns="http://www.w3.org/2000/svg" xmlns:xlink="http://www.w3.org/1999/xlink" x="0px" y="0px"
	 width="16px" height="16px" viewBox="0 0 16 16" style="enable-background:new 0 0 16 16;" xml:space="preserve">
<style type="text/css">
	.st0{fill:#CCCACA;}
	.st1{fill:#AFAEAE;}
	.st2{fill:#999999;}
	.st3{fill:#5599FF;}
	.st4{fill:#FFFFFF;}
</style>
<rect x="1.9" y="1.7" class="st0" width="12.7" height="12.7"/>
<path class="st1" d="M1,1h14v14H1V1z"/>
<path class="st2" d="M14,2v12H2V2H14 M15,1H1v14h14V1z"/>
<g>
	<path class="st3" d="M7,3h6v6H7V3z"/>
	<path class="st4" d="M11,8H8l0.8-1l0.8-1l0.8,1L11,8z"/>
	<path class="st4" d="M12,8H9.3L10,7.3l0.7-0.7l0.7,0.7L12,8z"/>
	<circle class="st4" cx="11.5" cy="5.5" r="0.5"/>
</g>
<g>
	<path class="st4" d="M3,12h10v1H3V12z"/>
	<path d="M3,10h10v1H3V10z"/>
</g>
</svg>
